<svg width="32" height="32" viewBox="0 0 32 32" fill="none" xmlns="http://www.w3.org/2000/svg">
<g clip-path="url(#clip0_107_331)">
<path d="M0 5.97388V25.6573H9.54053C10.4223 25.6573 11.2843 25.5464 12.1135 25.3267C12.9519 25.1061 13.7008 24.7663 14.3524 24.3052C14.9991 23.8477 15.5236 23.2545 15.9093 22.5227C16.2909 21.8 16.4819 20.94 16.4819 19.9421C16.4819 18.7112 16.1899 17.6609 15.5919 16.7835C14.9972 15.9112 14.1003 15.2983 12.8887 14.9507C13.7785 14.5292 14.4431 13.9871 14.8967 13.3271C15.3461 12.6648 15.5711 11.8372 15.5711 10.8461C15.5711 9.92974 15.4208 9.15588 15.1211 8.53708C14.8136 7.90921 14.3851 7.41014 13.8368 7.03494C13.28 6.66054 12.6208 6.38734 11.8485 6.22361C11.0716 6.05548 10.2219 5.97401 9.28 5.97401L0 5.97388ZM20.8899 7.29428V9.23654H28.8691V7.29428H20.8899ZM4.33453 9.32628H8.3888C8.77187 9.32628 9.14653 9.35348 9.50333 9.42374C9.86707 9.48588 10.1807 9.60241 10.458 9.76974C10.7375 9.93041 10.9585 10.1604 11.126 10.454C11.2871 10.7477 11.3668 11.1257 11.3668 11.5839C11.3668 12.4091 11.1253 13.0108 10.6267 13.374C10.1229 13.744 9.4876 13.9269 8.71947 13.9269H4.33453V9.32628ZM25.0612 11.0015C23.9692 11.0015 22.9829 11.1964 22.0887 11.5828C21.1947 11.97 20.4269 12.4995 19.7796 13.1715C19.1335 13.8396 18.6416 14.6363 18.2863 15.5593C17.938 16.4793 17.7607 17.4748 17.7607 18.5407C17.7607 19.6431 17.9319 20.6595 18.272 21.5788C18.616 22.5019 19.0984 23.2884 19.7195 23.9535C20.3568 24.6157 21.1141 25.1247 22.0208 25.4864C22.9283 25.8451 23.9384 26.0261 25.0612 26.0261C26.6719 26.0261 28.054 25.6567 29.1877 24.916C30.3343 24.1789 31.1747 22.9547 31.7288 21.2395H28.2821C28.1488 21.6804 27.8035 22.1048 27.2368 22.5017C26.6641 22.9001 25.9812 23.1007 25.1915 23.1007C24.0937 23.1007 23.2464 22.8116 22.6601 22.2391C22.0719 21.6665 21.6912 20.6005 21.6912 19.4735H31.9752C32.0488 18.368 31.9589 17.3111 31.7025 16.3005C31.4441 15.2871 31.0315 14.3852 30.4501 13.5952C29.8695 12.8044 29.1296 12.1729 28.2275 11.7065C27.3224 11.2341 26.2671 11.0015 25.0612 11.0015V11.0015ZM24.9429 13.9575C25.9041 13.9575 26.6931 14.2364 27.1579 14.7513C27.6249 15.27 27.9665 16.0089 28.06 17.0067H21.6912C21.7093 16.7287 21.7685 16.4141 21.8697 16.0673C21.9696 15.7116 22.1416 15.3788 22.3941 15.0633C22.6481 14.7532 22.9811 14.4887 23.3861 14.2772C23.8007 14.0628 24.3176 13.9576 24.9429 13.9576V13.9575ZM4.33467 16.8853H9.04587C9.97867 16.8853 10.7368 17.0989 11.3056 17.5301C11.8735 17.9675 12.1596 18.6881 12.1596 19.7024C12.1596 20.2204 12.0753 20.6483 11.9001 20.9779C11.7255 21.3105 11.486 21.5733 11.1961 21.764C10.9065 21.9628 10.5624 22.0971 10.1747 22.1823C9.79307 22.2675 9.38733 22.3049 8.95933 22.3049H4.33453L4.33467 16.8853Z" fill="#F6F6FC"/>
</g>
<defs>
<clipPath id="clip0_107_331">
<rect width="32" height="32" fill="white"/>
</clipPath>
</defs>
</svg>
