<svg width="32" height="32" viewBox="0 0 32 32" fill="none" xmlns="http://www.w3.org/2000/svg">
<g clip-path="url(#clip0_107_335)">
<path d="M16 32C7.18 32 0 24.82 0 16C0 7.18 7.18 0 16 0C24.82 0 32 7.18 32 16C32 24.82 24.82 32 16 32ZM29.4933 18.1893C29.0267 18.0427 25.2667 16.9187 20.9813 17.6053C22.768 22.5173 23.4973 26.5173 23.6373 27.3493C26.704 25.276 28.8853 21.9893 29.4973 18.1893H29.4933ZM21.34 28.6C21.136 27.4 20.34 23.224 18.42 18.24L18.332 18.2667C10.612 20.9533 7.852 26.3 7.612 26.8C9.91867 28.6107 12.8387 29.688 15.9987 29.688C17.892 29.688 19.692 29.3013 21.332 28.6027L21.34 28.6ZM5.84667 25.16C6.156 24.6267 9.90667 18.42 16.956 16.14C17.136 16.08 17.316 16.028 17.496 15.98C17.1493 15.2 16.776 14.424 16.3867 13.66C9.56 15.7 2.94133 15.6133 2.34133 15.6L2.336 16.016C2.336 19.5267 3.66667 22.732 5.848 25.156L5.84667 25.16ZM2.62 13.22C3.23333 13.2307 8.864 13.2547 15.256 11.556C12.992 7.532 10.5493 4.14533 10.1893 3.652C6.36533 5.452 3.50933 8.972 2.62133 13.212L2.62 13.22ZM12.8 2.736C13.176 3.24267 15.66 6.62133 17.896 10.736C22.756 8.916 24.816 6.14933 25.06 5.8C22.6467 3.65333 19.4733 2.352 16 2.352C14.9 2.352 13.8267 2.48533 12.8 2.732V2.736ZM26.58 7.38C26.2893 7.76667 24 10.704 18.948 12.7667C19.268 13.42 19.5747 14.08 19.8547 14.748C19.9613 14.988 20.0547 15.228 20.148 15.4547C24.6947 14.8813 29.2147 15.8013 29.668 15.8947C29.6413 12.668 28.4947 9.708 26.588 7.388L26.58 7.38Z" fill="#F6F6FC"/>
</g>
<defs>
<clipPath id="clip0_107_335">
<rect width="32" height="32" fill="white"/>
</clipPath>
</defs>
</svg>
