<svg width="536" height="195" viewBox="0 0 536 195" fill="none" xmlns="http://www.w3.org/2000/svg">
<g filter="url(#filter0_i_27_57)">
<rect width="536" height="131" rx="5" fill="#FDFDFB"/>
</g>
<rect x="0.5" y="0.5" width="535" height="130" rx="4.5" stroke="#FDFDFB"/>
<path d="M44.1899 47.16C44.1899 46.9767 44.2449 46.83 44.3549 46.72C44.5015 46.5733 44.6665 46.5 44.8499 46.5H51.2849C51.4682 46.5 51.6149 46.5733 51.7249 46.72C51.8715 46.83 51.9449 46.9767 51.9449 47.16V84.34C51.9449 84.5233 51.8715 84.6883 51.7249 84.835C51.6149 84.945 51.4682 85 51.2849 85H45.0699C44.7032 85 44.4465 84.8533 44.2999 84.56L30.0549 61.02C29.9815 60.91 29.9082 60.8733 29.8349 60.91C29.7615 60.91 29.7249 60.9833 29.7249 61.13L29.8349 84.34C29.8349 84.5233 29.7615 84.6883 29.6149 84.835C29.5049 84.945 29.3582 85 29.1749 85H22.7399C22.5565 85 22.3915 84.945 22.2449 84.835C22.1349 84.6883 22.0799 84.5233 22.0799 84.34V47.16C22.0799 46.9767 22.1349 46.83 22.2449 46.72C22.3915 46.5733 22.5565 46.5 22.7399 46.5H28.9549C29.3215 46.5 29.5782 46.6467 29.7249 46.94L43.9149 70.37C43.9882 70.48 44.0615 70.535 44.1349 70.535C44.2082 70.4983 44.2449 70.4067 44.2449 70.26L44.1899 47.16ZM83.187 67.95C83.407 69.3433 83.4803 70.9017 83.407 72.625C83.3703 73.065 83.132 73.285 82.692 73.285H65.697C65.477 73.285 65.4037 73.3767 65.477 73.56C65.587 74.2933 65.7887 75.0267 66.082 75.76C67.0353 77.8133 68.9787 78.84 71.912 78.84C74.2587 78.8033 76.1103 77.85 77.467 75.98C77.6137 75.76 77.7787 75.65 77.962 75.65C78.072 75.65 78.2003 75.7233 78.347 75.87L82.307 79.775C82.4903 79.9583 82.582 80.1233 82.582 80.27C82.582 80.3433 82.5087 80.49 82.362 80.71C81.152 82.2133 79.5937 83.3867 77.687 84.23C75.7803 85.0367 73.6903 85.44 71.417 85.44C68.2637 85.44 65.587 84.725 63.387 83.295C61.2237 81.865 59.6653 79.8667 58.712 77.3C57.942 75.4667 57.557 73.065 57.557 70.095C57.557 68.0783 57.832 66.3 58.382 64.76C59.2253 62.1567 60.692 60.085 62.782 58.545C64.9087 57.005 67.4203 56.235 70.317 56.235C73.9837 56.235 76.917 57.2983 79.117 59.425C81.3537 61.5517 82.7103 64.3933 83.187 67.95ZM70.372 62.945C68.062 62.945 66.5403 64.0267 65.807 66.19C65.6603 66.6667 65.532 67.2533 65.422 67.95C65.422 68.1333 65.5137 68.225 65.697 68.225H75.212C75.432 68.225 75.5053 68.1333 75.432 67.95C75.2487 66.8867 75.157 66.3733 75.157 66.41C74.827 65.31 74.2403 64.4667 73.397 63.88C72.5903 63.2567 71.582 62.945 70.372 62.945ZM88.8464 85C88.6631 85 88.4981 84.945 88.3514 84.835C88.2414 84.6883 88.1864 84.5233 88.1864 84.34V47.16C88.1864 46.9767 88.2414 46.83 88.3514 46.72C88.4981 46.5733 88.6631 46.5 88.8464 46.5H95.2814C95.4647 46.5 95.6114 46.5733 95.7214 46.72C95.8681 46.83 95.9414 46.9767 95.9414 47.16V65.695C95.9414 65.805 95.9781 65.8783 96.0514 65.915C96.1247 65.915 96.1981 65.8783 96.2714 65.805L103.751 57.115C104.008 56.8583 104.283 56.73 104.576 56.73H111.891C112.258 56.73 112.441 56.8583 112.441 57.115C112.441 57.225 112.386 57.3717 112.276 57.555L105.291 66.41C105.218 66.5567 105.2 66.685 105.236 66.795L113.431 84.23C113.505 84.3767 113.541 84.4867 113.541 84.56C113.541 84.8533 113.34 85 112.936 85H106.171C105.805 85 105.548 84.835 105.401 84.505L99.9564 71.635C99.9197 71.5617 99.8464 71.525 99.7364 71.525C99.6631 71.4883 99.6081 71.5067 99.5714 71.58L96.0514 75.98C95.9781 76.1267 95.9414 76.2367 95.9414 76.31V84.34C95.9414 84.5233 95.8681 84.6883 95.7214 84.835C95.6114 84.945 95.4647 85 95.2814 85H88.8464ZM121.693 53.54C120.446 53.54 119.401 53.1367 118.558 52.33C117.751 51.4867 117.348 50.4417 117.348 49.195C117.348 47.9117 117.751 46.8667 118.558 46.06C119.364 45.2533 120.409 44.85 121.693 44.85C122.976 44.85 124.021 45.2533 124.828 46.06C125.634 46.8667 126.038 47.9117 126.038 49.195C126.038 50.4417 125.616 51.4867 124.773 52.33C123.966 53.1367 122.939 53.54 121.693 53.54ZM118.393 85C118.209 85 118.044 84.945 117.898 84.835C117.788 84.6883 117.733 84.5233 117.733 84.34V57.335C117.733 57.1517 117.788 57.005 117.898 56.895C118.044 56.7483 118.209 56.675 118.393 56.675H124.828C125.011 56.675 125.158 56.7483 125.268 56.895C125.414 57.005 125.488 57.1517 125.488 57.335V84.34C125.488 84.5233 125.414 84.6883 125.268 84.835C125.158 84.945 125.011 85 124.828 85H118.393ZM147.756 62.285C147.756 62.4683 147.683 62.6333 147.536 62.78C147.426 62.89 147.279 62.945 147.096 62.945H141.816C141.633 62.945 141.541 63.0367 141.541 63.22V74.88C141.541 76.09 141.779 76.9883 142.256 77.575C142.769 78.1617 143.576 78.455 144.676 78.455H146.491C146.674 78.455 146.821 78.5283 146.931 78.675C147.078 78.785 147.151 78.9317 147.151 79.115V84.34C147.151 84.7433 146.931 84.9817 146.491 85.055C144.951 85.1283 143.851 85.165 143.191 85.165C140.148 85.165 137.874 84.67 136.371 83.68C134.868 82.6533 134.098 80.7467 134.061 77.96V63.22C134.061 63.0367 133.969 62.945 133.786 62.945H130.651C130.468 62.945 130.303 62.89 130.156 62.78C130.046 62.6333 129.991 62.4683 129.991 62.285V57.39C129.991 57.2067 130.046 57.06 130.156 56.95C130.303 56.8033 130.468 56.73 130.651 56.73H133.786C133.969 56.73 134.061 56.6383 134.061 56.455V49.91C134.061 49.7267 134.116 49.58 134.226 49.47C134.373 49.3233 134.538 49.25 134.721 49.25H140.881C141.064 49.25 141.211 49.3233 141.321 49.47C141.468 49.58 141.541 49.7267 141.541 49.91V56.455C141.541 56.6383 141.633 56.73 141.816 56.73H147.096C147.279 56.73 147.426 56.8033 147.536 56.95C147.683 57.06 147.756 57.2067 147.756 57.39V62.285ZM163.7 56.29C166.083 56.29 168.21 56.7117 170.08 57.555C171.95 58.3617 173.398 59.48 174.425 60.91C175.488 62.34 176.02 63.935 176.02 65.695V84.34C176.02 84.5233 175.946 84.6883 175.8 84.835C175.69 84.945 175.543 85 175.36 85H168.925C168.741 85 168.576 84.945 168.43 84.835C168.32 84.6883 168.265 84.5233 168.265 84.34V82.525C168.265 82.415 168.228 82.3417 168.155 82.305C168.081 82.2683 168.008 82.305 167.935 82.415C166.395 84.4317 163.92 85.44 160.51 85.44C157.65 85.44 155.34 84.7433 153.58 83.35C151.82 81.9567 150.94 79.9033 150.94 77.19C150.94 74.3667 151.93 72.185 153.91 70.645C155.89 69.0683 158.713 68.28 162.38 68.28H167.99C168.173 68.28 168.265 68.1883 168.265 68.005V66.795C168.265 65.585 167.898 64.65 167.165 63.99C166.431 63.2933 165.331 62.945 163.865 62.945C162.728 62.945 161.775 63.1467 161.005 63.55C160.271 63.9533 159.795 64.5217 159.575 65.255C159.465 65.6583 159.226 65.8417 158.86 65.805L152.205 64.925C151.765 64.8517 151.563 64.6867 151.6 64.43C151.746 62.89 152.351 61.4967 153.415 60.25C154.515 59.0033 155.945 58.0317 157.705 57.335C159.501 56.6383 161.5 56.29 163.7 56.29ZM162.6 79.665C164.176 79.665 165.515 79.2433 166.615 78.4C167.715 77.5567 168.265 76.475 168.265 75.155V73.175C168.265 72.9917 168.173 72.9 167.99 72.9H164.03C162.38 72.9 161.078 73.2117 160.125 73.835C159.208 74.4583 158.75 75.3383 158.75 76.475C158.75 77.465 159.098 78.2533 159.795 78.84C160.491 79.39 161.426 79.665 162.6 79.665ZM206.188 85.44C203.255 85.44 200.688 84.9817 198.488 84.065C196.288 83.1117 194.583 81.7733 193.373 80.05C192.2 78.29 191.613 76.255 191.613 73.945V72.735C191.613 72.5517 191.668 72.405 191.778 72.295C191.925 72.1483 192.09 72.075 192.273 72.075H198.543C198.726 72.075 198.873 72.1483 198.983 72.295C199.13 72.405 199.203 72.5517 199.203 72.735V73.56C199.203 75.0267 199.881 76.2733 201.238 77.3C202.595 78.29 204.428 78.785 206.738 78.785C208.681 78.785 210.13 78.3817 211.083 77.575C212.036 76.7317 212.513 75.705 212.513 74.495C212.513 73.615 212.22 72.8817 211.633 72.295C211.046 71.6717 210.24 71.14 209.213 70.7C208.223 70.2233 206.628 69.5817 204.428 68.775C201.971 67.9317 199.881 67.07 198.158 66.19C196.471 65.31 195.041 64.1183 193.868 62.615C192.731 61.075 192.163 59.1867 192.163 56.95C192.163 54.75 192.731 52.825 193.868 51.175C195.005 49.525 196.581 48.26 198.598 47.38C200.615 46.5 202.943 46.06 205.583 46.06C208.37 46.06 210.845 46.555 213.008 47.545C215.208 48.535 216.913 49.9283 218.123 51.725C219.37 53.485 219.993 55.5383 219.993 57.885V58.71C219.993 58.8933 219.92 59.0583 219.773 59.205C219.663 59.315 219.516 59.37 219.333 59.37H213.008C212.825 59.37 212.66 59.315 212.513 59.205C212.403 59.0583 212.348 58.8933 212.348 58.71V58.27C212.348 56.73 211.706 55.4283 210.423 54.365C209.176 53.265 207.453 52.715 205.253 52.715C203.53 52.715 202.173 53.0817 201.183 53.815C200.23 54.5483 199.753 55.5567 199.753 56.84C199.753 57.7567 200.028 58.5267 200.578 59.15C201.165 59.7733 202.008 60.3417 203.108 60.855C204.245 61.3317 205.986 61.9917 208.333 62.835C210.936 63.7883 212.971 64.6317 214.438 65.365C215.941 66.0983 217.28 67.1983 218.453 68.665C219.663 70.095 220.268 71.965 220.268 74.275C220.268 77.7217 219.003 80.4533 216.473 82.47C213.943 84.45 210.515 85.44 206.188 85.44ZM241.703 57.39C241.703 57.2067 241.758 57.06 241.868 56.95C242.015 56.8033 242.18 56.73 242.363 56.73H248.798C248.981 56.73 249.128 56.8033 249.238 56.95C249.385 57.06 249.458 57.2067 249.458 57.39V84.34C249.458 84.5233 249.385 84.6883 249.238 84.835C249.128 84.945 248.981 85 248.798 85H242.363C242.18 85 242.015 84.945 241.868 84.835C241.758 84.6883 241.703 84.5233 241.703 84.34V82.47C241.703 82.36 241.666 82.305 241.593 82.305C241.52 82.2683 241.446 82.305 241.373 82.415C239.906 84.395 237.633 85.385 234.553 85.385C231.766 85.385 229.475 84.5417 227.678 82.855C225.881 81.1683 224.983 78.8033 224.983 75.76V57.39C224.983 57.2067 225.038 57.06 225.148 56.95C225.295 56.8033 225.46 56.73 225.643 56.73H232.023C232.206 56.73 232.353 56.8033 232.463 56.95C232.61 57.06 232.683 57.2067 232.683 57.39V73.835C232.683 75.3017 233.068 76.4933 233.838 77.41C234.645 78.3267 235.745 78.785 237.138 78.785C238.385 78.785 239.411 78.4183 240.218 77.685C241.025 76.915 241.52 75.925 241.703 74.715V57.39ZM269.254 56.345C270.574 56.345 271.619 56.6017 272.389 57.115C272.682 57.2617 272.792 57.5367 272.719 57.94L271.564 64.21C271.527 64.65 271.27 64.7783 270.794 64.595C270.244 64.4117 269.602 64.32 268.869 64.32C268.575 64.32 268.172 64.3567 267.659 64.43C266.339 64.54 265.22 65.035 264.304 65.915C263.387 66.7583 262.929 67.895 262.929 69.325V84.34C262.929 84.5233 262.855 84.6883 262.709 84.835C262.599 84.945 262.452 85 262.269 85H255.834C255.65 85 255.485 84.945 255.339 84.835C255.229 84.6883 255.174 84.5233 255.174 84.34V57.39C255.174 57.2067 255.229 57.06 255.339 56.95C255.485 56.8033 255.65 56.73 255.834 56.73H262.269C262.452 56.73 262.599 56.8033 262.709 56.95C262.855 57.06 262.929 57.2067 262.929 57.39V59.48C262.929 59.59 262.965 59.6633 263.039 59.7C263.112 59.7367 263.167 59.7183 263.204 59.645C264.707 57.445 266.724 56.345 269.254 56.345ZM307.578 56.29C310.438 56.29 312.675 57.1517 314.288 58.875C315.902 60.5983 316.708 63.0183 316.708 66.135V84.34C316.708 84.5233 316.635 84.6883 316.488 84.835C316.378 84.945 316.232 85 316.048 85H309.613C309.43 85 309.265 84.945 309.118 84.835C309.008 84.6883 308.953 84.5233 308.953 84.34V67.84C308.953 66.3367 308.568 65.145 307.798 64.265C307.028 63.385 306.002 62.945 304.718 62.945C303.435 62.945 302.39 63.385 301.583 64.265C300.777 65.145 300.373 66.3183 300.373 67.785V84.34C300.373 84.5233 300.3 84.6883 300.153 84.835C300.043 84.945 299.897 85 299.713 85H293.333C293.15 85 292.985 84.945 292.838 84.835C292.728 84.6883 292.673 84.5233 292.673 84.34V67.84C292.673 66.3733 292.27 65.2 291.463 64.32C290.657 63.4033 289.612 62.945 288.328 62.945C287.155 62.945 286.165 63.2933 285.358 63.99C284.588 64.6867 284.13 65.6583 283.983 66.905V84.34C283.983 84.5233 283.91 84.6883 283.763 84.835C283.653 84.945 283.507 85 283.323 85H276.888C276.705 85 276.54 84.945 276.393 84.835C276.283 84.6883 276.228 84.5233 276.228 84.34V57.39C276.228 57.2067 276.283 57.06 276.393 56.95C276.54 56.8033 276.705 56.73 276.888 56.73H283.323C283.507 56.73 283.653 56.8033 283.763 56.95C283.91 57.06 283.983 57.2067 283.983 57.39V59.535C283.983 59.645 284.02 59.7183 284.093 59.755C284.167 59.7917 284.24 59.755 284.313 59.645C285.817 57.4083 288.145 56.29 291.298 56.29C293.132 56.29 294.727 56.675 296.083 57.445C297.477 58.215 298.54 59.315 299.273 60.745C299.383 60.965 299.512 60.965 299.658 60.745C300.465 59.2417 301.547 58.1233 302.903 57.39C304.297 56.6567 305.855 56.29 307.578 56.29ZM333.426 56.29C335.81 56.29 337.936 56.7117 339.806 57.555C341.676 58.3617 343.125 59.48 344.151 60.91C345.215 62.34 345.746 63.935 345.746 65.695V84.34C345.746 84.5233 345.673 84.6883 345.526 84.835C345.416 84.945 345.27 85 345.086 85H338.651C338.468 85 338.303 84.945 338.156 84.835C338.046 84.6883 337.991 84.5233 337.991 84.34V82.525C337.991 82.415 337.955 82.3417 337.881 82.305C337.808 82.2683 337.735 82.305 337.661 82.415C336.121 84.4317 333.646 85.44 330.236 85.44C327.376 85.44 325.066 84.7433 323.306 83.35C321.546 81.9567 320.666 79.9033 320.666 77.19C320.666 74.3667 321.656 72.185 323.636 70.645C325.616 69.0683 328.44 68.28 332.106 68.28H337.716C337.9 68.28 337.991 68.1883 337.991 68.005V66.795C337.991 65.585 337.625 64.65 336.891 63.99C336.158 63.2933 335.058 62.945 333.591 62.945C332.455 62.945 331.501 63.1467 330.731 63.55C329.998 63.9533 329.521 64.5217 329.301 65.255C329.191 65.6583 328.953 65.8417 328.586 65.805L321.931 64.925C321.491 64.8517 321.29 64.6867 321.326 64.43C321.473 62.89 322.078 61.4967 323.141 60.25C324.241 59.0033 325.671 58.0317 327.431 57.335C329.228 56.6383 331.226 56.29 333.426 56.29ZM332.326 79.665C333.903 79.665 335.241 79.2433 336.341 78.4C337.441 77.5567 337.991 76.475 337.991 75.155V73.175C337.991 72.9917 337.9 72.9 337.716 72.9H333.756C332.106 72.9 330.805 73.2117 329.851 73.835C328.935 74.4583 328.476 75.3383 328.476 76.475C328.476 77.465 328.825 78.2533 329.521 78.84C330.218 79.39 331.153 79.665 332.326 79.665ZM365.949 56.29C368.882 56.29 371.247 57.1883 373.044 58.985C374.841 60.7817 375.739 63.22 375.739 66.3V84.34C375.739 84.5233 375.666 84.6883 375.519 84.835C375.409 84.945 375.262 85 375.079 85H368.644C368.461 85 368.296 84.945 368.149 84.835C368.039 84.6883 367.984 84.5233 367.984 84.34V67.895C367.984 66.4283 367.562 65.2367 366.719 64.32C365.912 63.4033 364.831 62.945 363.474 62.945C362.117 62.945 361.017 63.4033 360.174 64.32C359.367 65.2367 358.964 66.4283 358.964 67.895V84.34C358.964 84.5233 358.891 84.6883 358.744 84.835C358.634 84.945 358.487 85 358.304 85H351.869C351.686 85 351.521 84.945 351.374 84.835C351.264 84.6883 351.209 84.5233 351.209 84.34V57.39C351.209 57.2067 351.264 57.06 351.374 56.95C351.521 56.8033 351.686 56.73 351.869 56.73H358.304C358.487 56.73 358.634 56.8033 358.744 56.95C358.891 57.06 358.964 57.2067 358.964 57.39V59.315C358.964 59.425 359.001 59.4983 359.074 59.535C359.147 59.5717 359.202 59.5533 359.239 59.48C360.742 57.3533 362.979 56.29 365.949 56.29Z" fill="#5D064A"/>
<path fill-rule="evenodd" clip-rule="evenodd" d="M476.432 32H419V82.5406H446.568V96.3243V98.6216H448.865H501.703H504V96.3243V50.3784V48.0811H501.703H476.432V32ZM448.865 82.5406H476.432V50.3784H501.703V96.3243H448.865V82.5406ZM428.189 36.5946H462.649V41.1892H428.189V36.5946ZM439.699 54.8016L443.038 70.3853C443.243 71.3416 444.185 71.9507 445.141 71.7458C446.097 71.5409 446.706 70.5996 446.501 69.6433L444.058 58.2398L460.538 68.9034L462.462 65.9299L445.982 55.2663L457.385 52.8227C458.342 52.6178 458.951 51.6765 458.746 50.7202C458.541 49.7639 457.6 49.1548 456.643 49.3597L441.06 52.699C440.103 52.904 439.494 53.8453 439.699 54.8016Z" fill="#5D064A"/>
<path d="M120.31 186.36C118.09 186.36 116.125 185.925 114.415 185.055C112.705 184.185 111.37 182.955 110.41 181.365C109.48 179.745 109.015 177.885 109.015 175.785V155.04C109.015 154.89 109.06 154.77 109.15 154.68C109.27 154.56 109.405 154.5 109.555 154.5H113.695C113.845 154.5 113.965 154.56 114.055 154.68C114.175 154.77 114.235 154.89 114.235 155.04V175.875C114.235 177.645 114.79 179.085 115.9 180.195C117.01 181.305 118.48 181.86 120.31 181.86C122.14 181.86 123.61 181.305 124.72 180.195C125.83 179.085 126.385 177.645 126.385 175.875V155.04C126.385 154.89 126.43 154.77 126.52 154.68C126.64 154.56 126.775 154.5 126.925 154.5H131.065C131.215 154.5 131.335 154.56 131.425 154.68C131.545 154.77 131.605 154.89 131.605 155.04V175.785C131.605 177.885 131.14 179.745 130.21 181.365C129.28 182.955 127.96 184.185 126.25 185.055C124.54 185.925 122.56 186.36 120.31 186.36ZM138.433 186C138.283 186 138.148 185.955 138.028 185.865C137.938 185.745 137.893 185.61 137.893 185.46V155.04C137.893 154.89 137.938 154.77 138.028 154.68C138.148 154.56 138.283 154.5 138.433 154.5H142.573C142.723 154.5 142.843 154.56 142.933 154.68C143.053 154.77 143.113 154.89 143.113 155.04V185.46C143.113 185.61 143.053 185.745 142.933 185.865C142.843 185.955 142.723 186 142.573 186H138.433ZM159.22 186C159.07 186 158.935 185.955 158.815 185.865C158.725 185.745 158.68 185.61 158.68 185.46V155.04C158.68 154.89 158.725 154.77 158.815 154.68C158.935 154.56 159.07 154.5 159.22 154.5H170.2C172.33 154.5 174.205 154.875 175.825 155.625C177.445 156.375 178.69 157.455 179.56 158.865C180.46 160.245 180.91 161.865 180.91 163.725V176.775C180.91 178.635 180.46 180.27 179.56 181.68C178.69 183.06 177.445 184.125 175.825 184.875C174.205 185.625 172.33 186 170.2 186H159.22ZM163.9 181.275C163.9 181.425 163.975 181.5 164.125 181.5H170.425C172.015 181.5 173.275 181.005 174.205 180.015C175.165 178.995 175.66 177.645 175.69 175.965V164.58C175.69 162.87 175.21 161.52 174.25 160.53C173.29 159.51 172 159 170.38 159H164.125C163.975 159 163.9 159.075 163.9 159.225V181.275ZM205.397 171.915C205.517 172.665 205.577 173.505 205.577 174.435L205.532 175.83C205.532 176.19 205.352 176.37 204.992 176.37H190.907C190.757 176.37 190.682 176.445 190.682 176.595C190.772 177.585 190.907 178.26 191.087 178.62C191.807 180.78 193.562 181.875 196.352 181.905C198.392 181.905 200.012 181.065 201.212 179.385C201.332 179.205 201.482 179.115 201.662 179.115C201.782 179.115 201.887 179.16 201.977 179.25L204.767 181.545C205.037 181.755 205.082 181.995 204.902 182.265C203.972 183.585 202.727 184.605 201.167 185.325C199.637 186.045 197.927 186.405 196.037 186.405C193.697 186.405 191.702 185.88 190.052 184.83C188.432 183.78 187.247 182.31 186.497 180.42C185.807 178.8 185.462 176.55 185.462 173.67C185.462 171.93 185.642 170.52 186.002 169.44C186.602 167.34 187.727 165.69 189.377 164.49C191.057 163.26 193.067 162.645 195.407 162.645C201.317 162.645 204.647 165.735 205.397 171.915ZM195.407 167.145C194.297 167.145 193.367 167.43 192.617 168C191.897 168.54 191.387 169.305 191.087 170.295C190.907 170.805 190.787 171.465 190.727 172.275C190.667 172.425 190.727 172.5 190.907 172.5H200.042C200.192 172.5 200.267 172.425 200.267 172.275C200.207 171.525 200.117 170.955 199.997 170.565C199.727 169.485 199.187 168.645 198.377 168.045C197.597 167.445 196.607 167.145 195.407 167.145ZM218.546 186.27C216.656 186.27 214.991 186 213.551 185.46C212.141 184.89 211.046 184.125 210.266 183.165C209.486 182.175 209.096 181.08 209.096 179.88V179.475C209.096 179.325 209.141 179.205 209.231 179.115C209.351 178.995 209.486 178.935 209.636 178.935H213.596C213.746 178.935 213.866 178.995 213.956 179.115C214.076 179.205 214.136 179.325 214.136 179.475V179.565C214.136 180.315 214.541 180.975 215.351 181.545C216.191 182.085 217.241 182.355 218.501 182.355C219.701 182.355 220.676 182.115 221.426 181.635C222.176 181.125 222.551 180.495 222.551 179.745C222.551 179.055 222.236 178.545 221.606 178.215C221.006 177.855 220.016 177.48 218.636 177.09L216.926 176.55C215.396 176.1 214.106 175.62 213.056 175.11C212.006 174.6 211.121 173.91 210.401 173.04C209.681 172.14 209.321 171 209.321 169.62C209.321 167.52 210.146 165.855 211.796 164.625C213.446 163.365 215.621 162.735 218.321 162.735C220.151 162.735 221.756 163.035 223.136 163.635C224.516 164.205 225.581 165.015 226.331 166.065C227.081 167.085 227.456 168.255 227.456 169.575C227.456 169.725 227.396 169.86 227.276 169.98C227.186 170.07 227.066 170.115 226.916 170.115H223.091C222.941 170.115 222.806 170.07 222.686 169.98C222.596 169.86 222.551 169.725 222.551 169.575C222.551 168.795 222.161 168.15 221.381 167.64C220.631 167.1 219.596 166.83 218.276 166.83C217.106 166.83 216.146 167.055 215.396 167.505C214.676 167.925 214.316 168.525 214.316 169.305C214.316 170.025 214.661 170.58 215.351 170.97C216.071 171.33 217.256 171.735 218.906 172.185L219.896 172.455C221.486 172.935 222.821 173.43 223.901 173.94C224.981 174.42 225.896 175.11 226.646 176.01C227.396 176.88 227.771 178.02 227.771 179.43C227.771 181.56 226.931 183.24 225.251 184.47C223.571 185.67 221.336 186.27 218.546 186.27ZM235.158 159.855C234.228 159.855 233.463 159.555 232.863 158.955C232.263 158.355 231.963 157.59 231.963 156.66C231.963 155.73 232.263 154.965 232.863 154.365C233.463 153.765 234.228 153.465 235.158 153.465C236.088 153.465 236.853 153.765 237.453 154.365C238.053 154.965 238.353 155.73 238.353 156.66C238.353 157.59 238.053 158.355 237.453 158.955C236.853 159.555 236.088 159.855 235.158 159.855ZM232.998 186C232.848 186 232.713 185.955 232.593 185.865C232.503 185.745 232.458 185.61 232.458 185.46V163.5C232.458 163.35 232.503 163.23 232.593 163.14C232.713 163.02 232.848 162.96 232.998 162.96H237.138C237.288 162.96 237.408 163.02 237.498 163.14C237.618 163.23 237.678 163.35 237.678 163.5V185.46C237.678 185.61 237.618 185.745 237.498 185.865C237.408 185.955 237.288 186 237.138 186H232.998ZM257.743 163.545C257.743 163.395 257.788 163.275 257.878 163.185C257.998 163.065 258.133 163.005 258.283 163.005H262.423C262.573 163.005 262.693 163.065 262.783 163.185C262.903 163.275 262.963 163.395 262.963 163.545V184.47C262.963 188.22 261.883 190.89 259.723 192.48C257.593 194.1 254.788 194.91 251.308 194.91C250.378 194.91 249.463 194.865 248.563 194.775C248.233 194.745 248.068 194.55 248.068 194.19L248.203 190.5C248.203 190.17 248.413 190.005 248.833 190.005C249.703 190.095 250.483 190.14 251.173 190.14C253.423 190.14 255.073 189.69 256.123 188.79C257.203 187.92 257.743 186.435 257.743 184.335V183.975C257.743 183.885 257.713 183.84 257.653 183.84C257.593 183.81 257.533 183.825 257.473 183.885C256.243 185.205 254.503 185.865 252.253 185.865C250.303 185.865 248.518 185.37 246.898 184.38C245.278 183.39 244.153 181.875 243.523 179.835C243.133 178.425 242.938 176.61 242.938 174.39C242.938 171.9 243.178 169.995 243.658 168.675C244.258 166.845 245.293 165.39 246.763 164.31C248.233 163.2 249.958 162.645 251.938 162.645C254.308 162.645 256.153 163.335 257.473 164.715C257.533 164.805 257.593 164.835 257.653 164.805C257.713 164.775 257.743 164.715 257.743 164.625V163.545ZM257.428 178.35C257.548 177.9 257.623 177.42 257.653 176.91C257.713 176.37 257.743 175.515 257.743 174.345C257.743 173.205 257.713 172.395 257.653 171.915C257.623 171.405 257.533 170.91 257.383 170.43C257.143 169.44 256.648 168.645 255.898 168.045C255.178 167.445 254.248 167.145 253.108 167.145C252.028 167.145 251.113 167.445 250.363 168.045C249.613 168.645 249.073 169.44 248.743 170.43C248.383 171.27 248.203 172.59 248.203 174.39C248.203 176.25 248.353 177.555 248.653 178.305C248.953 179.265 249.493 180.06 250.273 180.69C251.083 181.29 252.043 181.59 253.153 181.59C254.323 181.59 255.268 181.29 255.988 180.69C256.708 180.09 257.188 179.31 257.428 178.35ZM279.38 162.645C281.81 162.645 283.745 163.365 285.185 164.805C286.655 166.245 287.39 168.21 287.39 170.7V185.46C287.39 185.61 287.33 185.745 287.21 185.865C287.12 185.955 287 186 286.85 186H282.71C282.56 186 282.425 185.955 282.305 185.865C282.215 185.745 282.17 185.61 282.17 185.46V171.78C282.17 170.4 281.78 169.29 281 168.45C280.22 167.58 279.185 167.145 277.895 167.145C276.605 167.145 275.555 167.565 274.745 168.405C273.965 169.245 273.575 170.355 273.575 171.735V185.46C273.575 185.61 273.515 185.745 273.395 185.865C273.305 185.955 273.185 186 273.035 186H268.895C268.745 186 268.61 185.955 268.49 185.865C268.4 185.745 268.355 185.61 268.355 185.46V163.545C268.355 163.395 268.4 163.275 268.49 163.185C268.61 163.065 268.745 163.005 268.895 163.005H273.035C273.185 163.005 273.305 163.065 273.395 163.185C273.515 163.275 273.575 163.395 273.575 163.545V164.985C273.575 165.075 273.605 165.135 273.665 165.165C273.725 165.195 273.77 165.165 273.8 165.075C275.03 163.455 276.89 162.645 279.38 162.645ZM312.052 171.915C312.172 172.665 312.232 173.505 312.232 174.435L312.187 175.83C312.187 176.19 312.007 176.37 311.647 176.37H297.562C297.412 176.37 297.337 176.445 297.337 176.595C297.427 177.585 297.562 178.26 297.742 178.62C298.462 180.78 300.217 181.875 303.007 181.905C305.047 181.905 306.667 181.065 307.867 179.385C307.987 179.205 308.137 179.115 308.317 179.115C308.437 179.115 308.542 179.16 308.632 179.25L311.422 181.545C311.692 181.755 311.737 181.995 311.557 182.265C310.627 183.585 309.382 184.605 307.822 185.325C306.292 186.045 304.582 186.405 302.692 186.405C300.352 186.405 298.357 185.88 296.707 184.83C295.087 183.78 293.902 182.31 293.152 180.42C292.462 178.8 292.117 176.55 292.117 173.67C292.117 171.93 292.297 170.52 292.657 169.44C293.257 167.34 294.382 165.69 296.032 164.49C297.712 163.26 299.722 162.645 302.062 162.645C307.972 162.645 311.302 165.735 312.052 171.915ZM302.062 167.145C300.952 167.145 300.022 167.43 299.272 168C298.552 168.54 298.042 169.305 297.742 170.295C297.562 170.805 297.442 171.465 297.382 172.275C297.322 172.425 297.382 172.5 297.562 172.5H306.697C306.847 172.5 306.922 172.425 306.922 172.275C306.862 171.525 306.772 170.955 306.652 170.565C306.382 169.485 305.842 168.645 305.032 168.045C304.252 167.445 303.262 167.145 302.062 167.145ZM327.713 162.735C328.673 162.735 329.513 162.93 330.233 163.32C330.473 163.44 330.563 163.665 330.503 163.995L329.738 168.045C329.708 168.405 329.498 168.51 329.108 168.36C328.658 168.21 328.133 168.135 327.533 168.135C327.143 168.135 326.843 168.15 326.633 168.18C325.373 168.24 324.323 168.69 323.483 169.53C322.643 170.34 322.223 171.405 322.223 172.725V185.46C322.223 185.61 322.163 185.745 322.043 185.865C321.953 185.955 321.833 186 321.683 186H317.543C317.393 186 317.258 185.955 317.138 185.865C317.048 185.745 317.003 185.61 317.003 185.46V163.545C317.003 163.395 317.048 163.275 317.138 163.185C317.258 163.065 317.393 163.005 317.543 163.005H321.683C321.833 163.005 321.953 163.065 322.043 163.185C322.163 163.275 322.223 163.395 322.223 163.545V165.57C322.223 165.69 322.238 165.765 322.268 165.795C322.328 165.795 322.388 165.75 322.448 165.66C323.708 163.71 325.463 162.735 327.713 162.735Z" fill="#FDFDFB"/>
<path fill-rule="evenodd" clip-rule="evenodd" d="M411.216 144H370V180.27H389.784V190.162V191.811H391.432H429.351H431V190.162V157.189V155.541H429.351H411.216V144ZM391.432 180.27H411.216V157.189H429.351V190.162H391.432V180.27ZM376.595 147.297H401.324V150.595H376.595V147.297ZM384.855 160.364L387.251 171.547C387.398 172.233 388.074 172.671 388.76 172.523C389.446 172.376 389.883 171.701 389.736 171.015L387.983 162.831L399.81 170.484L401.19 168.35L389.363 160.697L397.547 158.943C398.233 158.796 398.671 158.121 398.523 157.434C398.376 156.748 397.701 156.311 397.015 156.458L385.831 158.855C385.145 159.002 384.708 159.677 384.855 160.364Z" fill="#FDFDFB"/>
<defs>
<filter id="filter0_i_27_57" x="0" y="0" width="538" height="133" filterUnits="userSpaceOnUse" color-interpolation-filters="sRGB">
<feFlood flood-opacity="0" result="BackgroundImageFix"/>
<feBlend mode="normal" in="SourceGraphic" in2="BackgroundImageFix" result="shape"/>
<feColorMatrix in="SourceAlpha" type="matrix" values="0 0 0 0 0 0 0 0 0 0 0 0 0 0 0 0 0 0 127 0" result="hardAlpha"/>
<feMorphology radius="1" operator="erode" in="SourceAlpha" result="effect1_innerShadow_27_57"/>
<feOffset dx="2" dy="2"/>
<feGaussianBlur stdDeviation="2.5"/>
<feComposite in2="hardAlpha" operator="arithmetic" k2="-1" k3="1"/>
<feColorMatrix type="matrix" values="0 0 0 0 0.366667 0 0 0 0 0.0229167 0 0 0 0 0.291042 0 0 0 0.15 0"/>
<feBlend mode="normal" in2="shape" result="effect1_innerShadow_27_57"/>
</filter>
</defs>
</svg>
